PathFileType	4	(X/Y/Z)	S1_rest_slow_left.trc
DataRate	CameraRate	NumFrames	NumMarkers	Units	OrigDataRate	OrigDataStartFrame	OrigNumFrames
250.00	250.00	15	18	mm	250.00	22615	36183
Frame#	Time	c7	r_should	l_should	clavicle	r_upa	r_elb_l	r_elb_m	r_low	r_wri_l	r_wri_m	r_met	l_upa	l_elb_l	l_elb_m	l_low	l_wri_l	l_wri_m	l_met
	X1	Y1	Z1	X2	Y2	Z2	X3	Y3	Z3	X4	Y4	Z4	X5	Y5	Z5	X6	Y6	Z6	X7	Y7	Z7	X8	Y8	Z8	X9	Y9	Z9	X10	Y10	Z10	X11	Y11	Z11	X12	Y12	Z12	X13	Y13	Z13	X14	Y14	Z14	X15	Y15	Z15	X16	Y16	Z16	X17	Y17	Z17	X18	Y18	Z18
22615	90.45600	994.62640	1423.06250	158.98293	1042.40002	1358.33264	327.59143	1046.82141	1366.08728	-15.20384	1124.69727	1296.22412	159.14906	1042.56079	1152.28699	400.78082	1032.97119	1070.81458	427.11337	971.31989	1037.50635	364.35870	1078.59302	947.44501	431.30313	1120.31030	833.68176	433.45090	1046.46228	815.57080	415.90073	1116.98218	756.54010	463.19162	1069.92065	1145.11072	-50.76139	1079.85376	1038.53064	-66.16749	1093.77783	1032.04688	39.26044	1090.89001	917.15680	-67.44754	1106.28796	800.78174	-73.41280	1107.27832	791.04718	6.88424	1072.82031	718.01294	-55.35630
22616	90.46000	994.56555	1423.06494	158.99345	1042.34045	1358.32166	327.59088	1047.20349	1365.61182	-14.92265	1124.65820	1296.24072	159.14893	1042.50061	1152.29468	400.80682	1032.91919	1070.81653	427.13705	971.27917	1037.49597	364.37933	1078.55103	947.45251	431.34341	1120.51294	833.57379	433.67194	1046.42786	815.57538	415.95020	1116.94727	756.55914	463.25992	1069.90869	1145.14026	-50.76588	1079.85181	1038.56750	-66.17895	1093.78271	1032.06958	39.25019	1090.88745	917.18469	-67.45984	1106.26855	800.80377	-73.42146	1106.55957	791.44373	6.34692	1072.79480	718.03412	-55.36128
22617	90.46400	994.50244	1423.06177	159.00301	1042.28613	1358.31567	327.58975	1047.03064	1365.80957	-15.01648	1124.62329	1296.25940	159.14986	1042.43677	1152.29834	400.82733	1032.87646	1070.81592	427.16861	971.23700	1037.48645	364.39740	1078.50537	947.46686	431.38867	1120.76062	833.45935	433.93213	1046.39551	815.58295	415.98941	1116.91260	756.57526	463.32562	1069.90735	1145.16760	-50.76186	1079.85181	1038.60803	-66.18665	1093.78796	1032.09692	39.24712	1090.88770	917.21747	-67.46157	1106.24670	800.82800	-73.43277	1106.36658	791.56506	6.20495	1072.76746	718.05975	-55.36781
22618	90.46800	994.43982	1423.05615	159.01160	1042.22363	1358.31067	327.59381	1046.47644	1366.47180	-15.36088	1124.58948	1296.27844	159.14532	1042.37671	1152.30420	400.84497	1032.82068	1070.81177	427.19040	971.19360	1037.47583	364.41476	1078.46069	947.47675	431.43637	1120.36194	833.63080	433.71823	1046.36072	815.58228	416.03680	1116.88171	756.58990	463.38583	1069.90955	1145.19885	-50.76292	1079.86023	1038.63782	-66.18942	1093.79810	1032.13635	39.24712	1090.88293	917.24493	-67.46803	1106.22864	800.85114	-73.44167	1106.30176	791.61609	6.15856	1072.73999	718.08276	-55.37647
22619	90.47200	994.37628	1423.05469	159.01398	1042.16211	1358.30334	327.59882	1046.31946	1366.65540	-15.44386	1124.55750	1296.30139	159.14857	1042.31946	1152.30640	400.86130	1032.76257	1070.81860	427.21555	971.15277	1037.45837	364.43036	1078.41638	947.48297	431.47839	1120.12280	833.95020	433.74945	1046.32471	815.58154	416.09167	1116.84583	756.60590	463.45087	1069.90662	1145.23486	-50.76609	1079.86194	1038.65930	-66.18350	1093.80823	1032.17676	39.24021	1090.88062	917.28107	-67.46906	1106.20825	800.87744	-73.44285	1106.27173	791.64099	6.14941	1072.71082	718.11365	-55.38721
22620	90.47600	994.31335	1423.05005	159.02014	1042.10266	1358.29333	327.59546	1046.26208	1366.71997	-15.46467	1124.51868	1296.32471	159.14742	1042.26428	1152.29761	400.86563	1032.70215	1070.81702	427.22739	971.11414	1037.44702	364.44556	1078.37451	947.48938	431.51886	1119.91138	834.29504	433.83755	1046.29773	815.58868	416.13681	1116.81348	756.61597	463.51004	1069.90649	1145.26343	-50.77005	1079.86194	1038.68506	-66.18822	1093.82007	1032.20959	39.23518	1090.87500	917.31274	-67.47457	1106.18640	800.89844	-73.45509	1106.25073	791.67566	6.14646	1072.68298	718.13782	-55.39372
22621	90.48000	994.24951	1423.04456	159.02002	1042.04053	1358.28918	327.59323	1046.46960	1366.46191	-15.30621	1124.48315	1296.34070	159.14473	1042.21021	1152.30017	400.88379	1032.64807	1070.81665	427.23529	971.07477	1037.43921	364.45975	1078.33582	947.48651	431.54874	1120.08069	833.85443	433.81256	1046.27112	815.58893	416.17834	1116.78271	756.62683	463.56992	1069.90540	1145.29004	-50.77111	1079.86084	1038.71326	-66.19124	1093.82776	1032.24109	39.22344	1090.86194	917.33911	-67.48541	1106.16785	800.92163	-73.46300	1106.54224	791.53815	6.38196	1072.65320	718.15820	-55.40057
22622	90.48400	994.18750	1423.03638	159.01454	1041.98340	1358.28381	327.59369	1046.74390	1366.11853	-15.10911	1124.44812	1296.35742	159.14149	1042.15601	1152.29688	400.90161	1032.60620	1070.81836	427.26535	971.03455	1037.42896	364.47812	1078.29419	947.47839	431.57755	1120.10352	833.74994	433.84253	1046.23999	815.59052	416.22580	1116.74927	756.63867	463.63425	1069.90430	1145.31921	-50.77897	1079.85950	1038.74036	-66.19734	1093.83606	1032.27893	39.21162	1090.85132	917.36420	-67.49268	1106.15759	800.94470	-73.46038	1106.90857	791.34705	6.67154	1072.62378	718.18536	-55.40356
22623	90.48800	994.12897	1423.03003	159.00827	1041.92407	1358.27039	327.58838	1046.31567	1366.63721	-15.38091	1124.41870	1296.36597	159.14410	1042.10779	1152.29077	400.91959	1032.57007	1070.82983	427.29462	970.99310	1037.42102	364.49789	1078.24976	947.47699	431.61032	1120.08594	833.72632	433.88443	1046.20825	815.59491	416.27255	1116.71399	756.65350	463.69681	1069.90271	1145.34814	-50.78574	1079.85706	1038.76709	-66.20796	1093.84045	1032.30823	39.20426	1090.84839	917.38702	-67.49391	1106.13550	800.96521	-73.46631	1106.36707	791.64447	6.26959	1072.59778	718.21063	-55.40284
22624	90.49200	994.06934	1423.02246	158.99887	1041.86035	1358.25903	327.58578	1046.43457	1366.48999	-15.29092	1124.38635	1296.37622	159.14186	1042.05750	1152.29517	400.93326	1032.52429	1070.82471	427.31644	970.95801	1037.41211	364.51321	1078.20300	947.47345	431.64771	1120.04980	833.71704	433.92801	1046.17712	815.58789	416.32532	1116.67834	756.66431	463.75638	1069.90320	1145.36523	-50.78965	1079.85840	1038.79504	-66.21520	1093.83789	1032.34338	39.20197	1090.83508	917.41003	-67.49394	1106.11768	800.99011	-73.47310	1106.22217	791.74182	6.16826	1072.57727	718.23584	-55.39342
22625	90.49600	994.01154	1423.01160	158.98979	1041.79602	1358.25134	327.58832	1046.68665	1366.17664	-15.10972	1124.34998	1296.39148	159.13957	1042.00647	1152.29578	400.95050	1032.47327	1070.82654	427.33072	970.92340	1037.40283	364.52609	1078.15649	947.47028	431.67639	1120.00891	833.71478	433.97116	1046.14014	815.59076	416.38174	1116.63989	756.67279	463.81387	1069.89624	1145.38867	-50.79396	1079.85547	1038.82117	-66.21772	1093.82959	1032.37170	39.19815	1090.81909	917.43707	-67.49722	1106.10217	801.01263	-73.46784	1106.16626	791.78955	6.15254	1072.54956	718.26318	-55.38683
22626	90.50000	993.95294	1422.99805	158.98782	1041.73584	1358.24841	327.58920	1046.25354	1366.70007	-15.38876	1124.31177	1296.40173	159.13409	1041.95544	1152.28979	400.96289	1032.43237	1070.82520	427.34427	970.88586	1037.39709	364.53500	1078.11230	947.46527	431.69626	1119.96558	833.71094	434.01489	1046.10583	815.60040	416.42505	1116.60010	756.68250	463.87350	1069.88403	1145.41663	-50.80045	1079.84497	1038.84741	-66.22083	1093.81799	1032.39233	39.18786	1090.80164	917.46033	-67.50661	1106.08289	801.03284	-73.46246	1106.13147	791.81012	6.15131	1072.52319	718.28717	-55.38142
22627	90.50400	993.89362	1422.99280	158.98969	1041.67847	1358.24829	327.59244	1046.13330	1366.84692	-15.45999	1124.28186	1296.41113	159.14159	1041.90759	1152.28564	400.97195	1032.38672	1070.81506	427.36154	970.84882	1037.39600	364.54456	1078.06848	947.45422	431.72186	1119.92896	833.70447	434.06329	1046.06848	815.60052	416.45795	1116.56628	756.68622	463.92886	1069.87427	1145.44080	-50.80584	1079.83337	1038.87317	-66.22018	1093.80420	1032.41516	39.18172	1090.78906	917.47382	-67.49572	1106.06262	801.04681	-73.45724	1106.09900	791.82983	6.15248	1072.49573	718.31439	-55.37568
22628	90.50800	993.83594	1422.98975	158.99364	1041.61926	1358.23633	327.59296	1046.09351	1366.90503	-15.47771	1124.25452	1296.42114	159.15845	1041.86108	1152.28186	400.98303	1032.33911	1070.80933	427.37234	970.81226	1037.39417	364.54831	1078.02600	947.44012	431.75491	1119.89917	833.69977	434.10754	1046.03613	815.60010	416.49634	1116.53259	756.68994	463.98352	1069.86523	1145.46521	-50.81040	1079.82690	1038.89246	-66.21813	1093.79053	1032.43579	39.18186	1090.77893	917.49335	-67.48434	1106.04224	801.06165	-73.45428	1106.06763	791.84900	6.14510	1072.46655	718.34424	-55.36816
22629	90.51200	993.78210	1422.98743	158.99413	1041.56531	1358.21985	327.60092	1046.31836	1366.64441	-15.31200	1124.22974	1296.43970	159.17415	1041.82056	1152.27588	400.99316	1032.29944	1070.80334	427.38211	970.78027	1037.38989	364.54959	1077.98608	947.43945	431.79001	1119.86731	833.70233	434.15207	1046.00305	815.59857	416.52954	1116.49646	756.69250	464.03601	1069.85425	1145.48730	-50.80997	1079.82275	1038.91028	-66.21836	1093.79297	1032.45398	39.19465	1090.77075	917.51617	-67.47900	1106.02258	801.08606	-73.44891	1106.04602	791.87024	6.14932	1072.43750	718.37256	-55.36721
